<svg width="180" height="23" viewBox="0 0 180 23" fill="none" xmlns="http://www.w3.org/2000/svg">
<path d="M93.4213 11.0448C94.5865 11.5714 95.4956 12.2589 96.1485 13.1073C96.8015 13.9557 97.1279 14.9357 97.1279 16.0474C97.1279 18.2318 96.3896 19.836 94.913 20.8599C93.4363 21.8839 91.5931 22.3958 89.3832 22.3958H82V0.863924H88.5092C90.8598 0.863924 92.7081 1.32713 94.0541 2.25355C95.4002 3.17997 96.0732 4.52084 96.0732 6.27616C96.0732 7.34885 95.8422 8.2899 95.3801 9.0993C94.918 9.9087 94.2651 10.5572 93.4213 11.0448ZM86.3696 9.66978H89.0215C89.8251 9.66978 90.4479 9.43086 90.8899 8.95302C91.3319 8.47518 91.5529 7.8852 91.5529 7.18307C91.5529 6.46144 91.3018 5.91047 90.7995 5.53015C90.2973 5.14983 89.6041 4.95967 88.7202 4.95967H86.3696V9.66978ZM89.1722 18.4464C90.1968 18.4464 91.0255 18.2465 91.6584 17.8466C92.2912 17.4468 92.6076 16.8471 92.6076 16.0474C92.6076 14.5262 91.362 13.7655 88.8709 13.7655H86.3696V18.4464H89.1722ZM104.36 11.6591C104.36 9.70878 104.868 7.8852 105.882 6.18839C106.897 4.49158 108.273 3.14096 110.011 2.13653C111.749 1.1321 113.632 0.629883 115.661 0.629883C117.69 0.629883 119.574 1.1321 121.312 2.13653C123.049 3.14096 124.436 4.49158 125.47 6.18839C126.505 7.8852 127.022 9.70878 127.022 11.6591C127.022 13.6485 126.505 15.4818 125.47 17.1591C124.436 18.8364 123.049 20.1676 121.312 21.1525C119.574 22.1374 117.69 22.6299 115.661 22.6299C113.612 22.6299 111.723 22.1374 109.996 21.1525C108.268 20.1676 106.897 18.8364 105.882 17.1591C104.868 15.4818 104.36 13.6485 104.36 11.6591ZM108.881 11.6591C108.881 12.9074 109.187 14.0581 109.8 15.1113C110.413 16.1645 111.246 16.9982 112.301 17.6126C113.356 18.227 114.526 18.5341 115.812 18.5341C117.057 18.5341 118.192 18.227 119.217 17.6126C120.242 16.9982 121.045 16.1693 121.628 15.1259C122.211 14.0825 122.502 12.9269 122.502 11.6591C122.502 10.3719 122.2 9.20169 121.598 8.1485C120.995 7.09531 120.176 6.26153 119.142 5.64717C118.107 5.03281 116.957 4.72563 115.691 4.72563C114.426 4.72563 113.275 5.03281 112.241 5.64717C111.206 6.26153 110.387 7.09531 109.785 8.1485C109.182 9.20169 108.881 10.3719 108.881 11.6591ZM135.611 0.863924H142.24C145.073 0.863924 147.404 1.3954 149.232 2.45834C151.06 3.52128 152.391 4.89628 153.225 6.58334C154.059 8.2704 154.475 10.0794 154.475 12.0102C154.475 14.0776 153.973 15.9012 152.969 17.4809C151.964 19.0607 150.613 20.2748 148.915 21.1232C147.218 21.9716 145.354 22.3958 143.325 22.3958H135.611V0.863924ZM142.572 18.3001C144.842 18.3001 146.64 17.7345 147.966 16.6033C149.292 15.4721 149.955 13.8435 149.955 11.7176C149.955 10.0013 149.588 8.63609 148.855 7.6219C148.122 6.60772 147.268 5.90559 146.294 5.51552C145.319 5.12545 144.4 4.93041 143.536 4.93041H139.98V18.3001H142.572ZM180 0.863924L171.683 15.6964V22.3958H167.313V15.6964L159.146 0.863924H164.541L169.633 10.8107L174.606 0.863924H180Z" fill="#111111"/>
<path d="M15.06 0.838993V4.88931H4.35V9.43145H13.83V13.4818H4.35V18.0818H15.48V22.1321H0V0.838993H15.06ZM44.07 0.838993V23H43.95L28.5 9.54717L28.59 22.1321H24.18V0H24.36L39.78 13.6553L39.69 0.838993H44.07ZM71.88 19.9912C71.54 20.3384 70.935 20.7 70.065 21.0761C69.195 21.4522 68.235 21.7608 67.185 22.0019C66.135 22.243 65.18 22.3635 64.32 22.3635C61.98 22.3635 59.925 21.9247 58.155 21.0472C56.385 20.1696 55.02 18.9545 54.06 17.4019C53.1 15.8493 52.62 14.0797 52.62 12.0931C52.62 9.60503 53.13 7.4979 54.15 5.7717C55.17 4.04549 56.54 2.75325 58.26 1.89497C59.98 1.03669 61.88 0.607546 63.96 0.607546C65.3 0.607546 66.56 0.752201 67.74 1.04151C68.92 1.33082 69.96 1.70692 70.86 2.16981L69.45 6.07547C68.87 5.76688 68.075 5.48239 67.065 5.22201C66.055 4.96163 65.21 4.83145 64.53 4.83145C62.13 4.83145 60.295 5.41006 59.025 6.5673C57.755 7.72453 57.12 9.44109 57.12 11.717C57.12 13.0285 57.43 14.1713 58.05 15.1453C58.67 16.1193 59.535 16.8667 60.645 17.3874C61.755 17.9082 63.02 18.1686 64.44 18.1686C65.8 18.1686 66.81 17.9853 67.47 17.6189V15.044H63.66V10.9937H71.88V19.9912Z" fill="#EB51C2"/>
</svg>
